<svg id="BACKGROUND" xmlns="http://www.w3.org/2000/svg" xmlns:xlink="http://www.w3.org/1999/xlink" viewBox="0 0 750.45 500.45"><defs><style>.cls-1{fill:url(#linear-gradient);}.cls-2{opacity:0.31;}.cls-3{fill:url(#linear-gradient-2);}.cls-4{fill:url(#linear-gradient-3);}.cls-5{fill:url(#linear-gradient-4);}.cls-6{fill:url(#linear-gradient-5);}.cls-7{fill:url(#linear-gradient-6);}.cls-8{fill:url(#linear-gradient-7);}.cls-9{fill:url(#linear-gradient-8);}.cls-10{fill:url(#linear-gradient-9);}.cls-11{fill:url(#linear-gradient-10);}.cls-12{fill:url(#linear-gradient-11);}.cls-13{fill:url(#linear-gradient-12);}.cls-14{fill:url(#linear-gradient-13);}.cls-15{fill:url(#linear-gradient-14);}.cls-16{fill:url(#linear-gradient-15);}.cls-17{fill:url(#linear-gradient-16);}.cls-18{fill:url(#linear-gradient-17);}.cls-19{fill:url(#linear-gradient-18);}.cls-20{fill:url(#linear-gradient-19);}.cls-21{fill:url(#linear-gradient-20);}.cls-22{fill:url(#linear-gradient-21);}.cls-23{fill:url(#linear-gradient-22);}.cls-24{fill:url(#linear-gradient-23);}.cls-25{fill:url(#linear-gradient-24);}.cls-26{fill:url(#linear-gradient-25);}.cls-27{fill:url(#linear-gradient-26);}.cls-28{fill:url(#linear-gradient-27);}.cls-29{fill:url(#linear-gradient-28);}.cls-30{fill:url(#linear-gradient-29);}.cls-31{fill:url(#linear-gradient-30);}.cls-32{fill:url(#linear-gradient-31);}.cls-33{fill:url(#linear-gradient-32);}.cls-34{fill:url(#linear-gradient-33);}.cls-35{fill:url(#linear-gradient-34);}.cls-36{fill:url(#linear-gradient-35);}.cls-37{fill:url(#linear-gradient-36);}.cls-38{fill:url(#linear-gradient-37);}.cls-39{fill:url(#linear-gradient-38);}</style><linearGradient id="linear-gradient" x1="375.23" y1="-19.72" x2="375.23" y2="530.87" gradientUnits="userSpaceOnUse"><stop offset="0" stop-color="#3123af"/><stop offset="0.19" stop-color="#5130b1"/><stop offset="0.61" stop-color="#a350b6"/><stop offset="1" stop-color="#f36fbb"/></linearGradient><linearGradient id="linear-gradient-2" x1="374.68" y1="-64.39" x2="378.92" y2="438.18" gradientUnits="userSpaceOnUse"><stop offset="0" stop-color="#3123af"/><stop offset="0" stop-color="#4f43bb"/><stop offset="0" stop-color="#9d96d9"/><stop offset="0" stop-color="#fff"/><stop offset="1" stop-color="#fff" stop-opacity="0"/></linearGradient><linearGradient id="linear-gradient-3" x1="374.38" y1="-64.39" x2="378.62" y2="438.19" xlink:href="#linear-gradient-2"/><linearGradient id="linear-gradient-4" x1="374.08" y1="-64.38" x2="378.32" y2="438.19" xlink:href="#linear-gradient-2"/><linearGradient id="linear-gradient-5" x1="373.78" y1="-64.38" x2="378.01" y2="438.19" xlink:href="#linear-gradient-2"/><linearGradient id="linear-gradient-6" x1="373.48" y1="-64.37" x2="377.71" y2="438.2" xlink:href="#linear-gradient-2"/><linearGradient id="linear-gradient-7" x1="373.18" y1="-64.37" x2="377.41" y2="438.2" xlink:href="#linear-gradient-2"/><linearGradient id="linear-gradient-8" x1="372.88" y1="-64.37" x2="377.11" y2="438.2" xlink:href="#linear-gradient-2"/><linearGradient id="linear-gradient-9" x1="372.58" y1="-64.36" x2="376.81" y2="438.21" xlink:href="#linear-gradient-2"/><linearGradient id="linear-gradient-10" x1="372.28" y1="-64.36" x2="376.51" y2="438.21" xlink:href="#linear-gradient-2"/><linearGradient id="linear-gradient-11" x1="371.97" y1="-64.35" x2="376.21" y2="438.21" xlink:href="#linear-gradient-2"/><linearGradient id="linear-gradient-12" x1="371.67" y1="-64.35" x2="375.91" y2="438.22" xlink:href="#linear-gradient-2"/><linearGradient id="linear-gradient-13" x1="371.37" y1="-64.35" x2="375.61" y2="438.22" xlink:href="#linear-gradient-2"/><linearGradient id="linear-gradient-14" x1="371.07" y1="-64.34" x2="375.31" y2="438.23" xlink:href="#linear-gradient-2"/><linearGradient id="linear-gradient-15" x1="370.77" y1="-64.34" x2="375.01" y2="438.23" xlink:href="#linear-gradient-2"/><linearGradient id="linear-gradient-16" x1="370.47" y1="-64.34" x2="374.7" y2="438.23" xlink:href="#linear-gradient-2"/><linearGradient id="linear-gradient-17" x1="-2.4" y1="-61.21" x2="1.84" y2="441.37" xlink:href="#linear-gradient-2"/><linearGradient id="linear-gradient-18" x1="33.94" y1="-61.52" x2="38.17" y2="441.07" xlink:href="#linear-gradient-2"/><linearGradient id="linear-gradient-19" x1="70.27" y1="-61.83" x2="74.5" y2="440.76" xlink:href="#linear-gradient-2"/><linearGradient id="linear-gradient-20" x1="106.6" y1="-62.13" x2="110.84" y2="440.46" xlink:href="#linear-gradient-2"/><linearGradient id="linear-gradient-21" x1="142.93" y1="-62.44" x2="147.17" y2="440.15" xlink:href="#linear-gradient-2"/><linearGradient id="linear-gradient-22" x1="179.27" y1="-62.75" x2="183.5" y2="439.84" xlink:href="#linear-gradient-2"/><linearGradient id="linear-gradient-23" x1="215.6" y1="-63.05" x2="219.84" y2="439.54" xlink:href="#linear-gradient-2"/><linearGradient id="linear-gradient-24" x1="251.93" y1="-63.36" x2="256.17" y2="439.23" xlink:href="#linear-gradient-2"/><linearGradient id="linear-gradient-25" x1="288.27" y1="-63.66" x2="292.5" y2="438.92" xlink:href="#linear-gradient-2"/><linearGradient id="linear-gradient-26" x1="324.6" y1="-63.97" x2="328.83" y2="438.62" xlink:href="#linear-gradient-2"/><linearGradient id="linear-gradient-27" x1="360.93" y1="-64.28" x2="365.17" y2="438.31" xlink:href="#linear-gradient-2"/><linearGradient id="linear-gradient-28" x1="397.27" y1="-64.58" x2="401.5" y2="438.01" xlink:href="#linear-gradient-2"/><linearGradient id="linear-gradient-29" x1="433.6" y1="-64.89" x2="437.83" y2="437.7" xlink:href="#linear-gradient-2"/><linearGradient id="linear-gradient-30" x1="469.93" y1="-65.19" x2="474.17" y2="437.39" xlink:href="#linear-gradient-2"/><linearGradient id="linear-gradient-31" x1="506.26" y1="-65.5" x2="510.5" y2="437.09" xlink:href="#linear-gradient-2"/><linearGradient id="linear-gradient-32" x1="540.73" y1="-65.79" x2="544.97" y2="436.8" xlink:href="#linear-gradient-2"/><linearGradient id="linear-gradient-33" x1="575.2" y1="-66.08" x2="579.44" y2="436.51" xlink:href="#linear-gradient-2"/><linearGradient id="linear-gradient-34" x1="609.67" y1="-66.37" x2="613.91" y2="436.22" xlink:href="#linear-gradient-2"/><linearGradient id="linear-gradient-35" x1="644.14" y1="-66.66" x2="648.38" y2="435.93" xlink:href="#linear-gradient-2"/><linearGradient id="linear-gradient-36" x1="678.61" y1="-66.95" x2="682.85" y2="435.64" xlink:href="#linear-gradient-2"/><linearGradient id="linear-gradient-37" x1="713.08" y1="-67.24" x2="717.32" y2="435.34" xlink:href="#linear-gradient-2"/><linearGradient id="linear-gradient-38" x1="747.55" y1="-67.53" x2="751.78" y2="435.05" xlink:href="#linear-gradient-2"/></defs><rect class="cls-1" x="0.23" y="0.23" width="750" height="500"/><g class="cls-2"><rect class="cls-3" x="0.23" width="750" height="0.45"/><rect class="cls-4" x="0.23" y="35.71" width="750" height="0.45"/><rect class="cls-5" x="0.23" y="71.43" width="750" height="0.45"/><rect class="cls-6" x="0.23" y="107.14" width="750" height="0.45"/><rect class="cls-7" x="0.23" y="142.86" width="750" height="0.45"/><rect class="cls-8" x="0.23" y="178.57" width="750" height="0.45"/><rect class="cls-9" x="0.23" y="214.29" width="750" height="0.45"/><rect class="cls-10" x="0.23" y="250" width="750" height="0.45"/><rect class="cls-11" x="0.23" y="285.71" width="750" height="0.45"/><rect class="cls-12" x="0.23" y="321.43" width="750" height="0.45"/><rect class="cls-13" x="0.23" y="357.14" width="750" height="0.45"/><rect class="cls-14" x="0.23" y="392.86" width="750" height="0.45"/><rect class="cls-15" x="0.23" y="428.57" width="750" height="0.45"/><rect class="cls-16" x="0.23" y="464.29" width="750" height="0.45"/><rect class="cls-17" x="0.23" y="500" width="750" height="0.45"/><rect class="cls-18" y="0.23" width="0.45" height="500"/><rect class="cls-19" x="36.34" y="0.23" width="0.45" height="500"/><rect class="cls-20" x="72.67" y="0.23" width="0.45" height="500"/><rect class="cls-21" x="109.01" y="0.23" width="0.45" height="500"/><rect class="cls-22" x="145.34" y="0.23" width="0.45" height="500"/><rect class="cls-23" x="181.68" y="0.23" width="0.45" height="500"/><rect class="cls-24" x="218.01" y="0.23" width="0.45" height="500"/><rect class="cls-25" x="254.35" y="0.23" width="0.45" height="500"/><rect class="cls-26" x="290.68" y="0.23" width="0.45" height="500"/><rect class="cls-27" x="327.02" y="0.23" width="0.45" height="500"/><rect class="cls-28" x="363.36" y="0.23" width="0.45" height="500"/><rect class="cls-29" x="399.69" y="0.23" width="0.45" height="500"/><rect class="cls-30" x="436.03" y="0.23" width="0.45" height="500"/><rect class="cls-31" x="472.36" y="0.23" width="0.45" height="500"/><rect class="cls-32" x="508.7" y="0.23" width="0.45" height="500"/><rect class="cls-33" x="543.17" y="0.23" width="0.45" height="500"/><rect class="cls-34" x="577.64" y="0.23" width="0.45" height="500"/><rect class="cls-35" x="612.11" y="0.23" width="0.45" height="500"/><rect class="cls-36" x="646.59" y="0.23" width="0.45" height="500"/><rect class="cls-37" x="681.06" y="0.23" width="0.45" height="500"/><rect class="cls-38" x="715.53" y="0.23" width="0.45" height="500"/><rect class="cls-39" x="750" y="0.23" width="0.45" height="500"/></g></svg>