<svg width="612" height="567" viewBox="0 0 612 567" fill="none" xmlns="http://www.w3.org/2000/svg">
<path d="M586.93 1H25.0699C11.7765 1 1 16.5778 1 35.794V531.206C1 550.422 11.7765 566 25.0699 566H586.93C600.224 566 611 550.422 611 531.206V35.794C611 16.5778 600.224 1 586.93 1Z" fill="#C2C0CA" stroke="#263C61" stroke-width="1.18" stroke-miterlimit="10"/>
<path d="M15.8993 187H280.517C286.48 187 292.199 188.982 296.415 192.511C300.631 196.04 303 200.826 303 205.816V367.204C303 370.068 301.641 372.814 299.222 374.838C296.803 376.863 293.522 378 290.101 378H15.8993C14.2054 378 12.528 377.721 10.963 377.178C9.39796 376.636 7.97599 375.841 6.77817 374.838C5.58036 373.836 4.63018 372.645 3.98193 371.336C3.33368 370.026 3.00001 368.622 3.00001 367.204V197.812C2.99749 196.393 3.32931 194.987 3.97643 193.675C4.62356 192.364 5.57333 191.172 6.77139 190.168C7.96945 189.163 9.39226 188.367 10.9585 187.823C12.5248 187.28 14.2038 187 15.8993 187Z" fill="#4DFFAC" stroke="#263C61" stroke-width="1.08" stroke-linecap="round" stroke-linejoin="round"/>
<path d="M323.899 187H588.517C594.48 187 600.199 188.982 604.415 192.511C608.631 196.04 611 200.826 611 205.816V367.204C611 370.068 609.641 372.814 607.222 374.838C604.803 376.863 601.522 378 598.101 378H323.899C322.205 378 320.528 377.721 318.963 377.178C317.398 376.636 315.976 375.841 314.778 374.838C313.58 373.836 312.63 372.645 311.982 371.336C311.334 370.026 311 368.622 311 367.204V197.812C310.997 196.393 311.329 194.987 311.976 193.675C312.624 192.364 313.573 191.172 314.771 190.168C315.969 189.163 317.392 188.367 318.959 187.823C320.525 187.28 322.204 187 323.899 187Z" fill="#FFE87F" stroke="#263C61" stroke-width="1.08" stroke-linecap="round" stroke-linejoin="round"/>
<path d="M458.608 62.7154C458.696 62.7451 458.79 62.7451 458.877 62.7154C458.97 62.7482 459.071 62.7482 459.165 62.7154C465.574 58.2957 469.968 53.876 472.251 49.5381C473.279 47.8758 473.814 45.9223 473.786 43.9316C473.802 42.0767 473.274 40.2628 472.276 38.7436C471.278 37.2244 469.859 36.0757 468.219 35.458C466.579 34.8404 464.798 34.7847 463.127 35.2988C461.455 35.8128 459.976 36.8709 458.896 38.3251C457.816 36.8709 456.337 35.8128 454.666 35.2988C452.994 34.7847 451.214 34.8404 449.573 35.458C447.933 36.0757 446.515 37.2244 445.516 38.7436C444.518 40.2628 443.99 42.0767 444.006 43.9316C443.979 45.9223 444.513 47.8758 445.541 49.5381C447.805 53.876 452.199 58.2957 458.608 62.7154Z" fill="#FF97D3" stroke="#263C61" stroke-width="1.08" stroke-miterlimit="10"/>
<path d="M507.826 62.7154C507.913 62.7451 508.007 62.7451 508.095 62.7154C508.188 62.7482 508.289 62.7482 508.383 62.7154C514.791 58.2957 519.186 53.876 521.469 49.5381C522.497 47.8758 523.031 45.9223 523.004 43.9316C523.02 42.0767 522.492 40.2628 521.494 38.7436C520.495 37.2244 519.077 36.0757 517.437 35.458C515.796 34.8404 514.016 34.7847 512.344 35.2988C510.673 35.8128 509.194 36.8709 508.114 38.3251C507.034 36.8709 505.555 35.8128 503.883 35.2988C502.212 34.7847 500.432 34.8404 498.791 35.458C497.151 36.0757 495.732 37.2244 494.734 38.7436C493.736 40.2628 493.208 42.0767 493.224 43.9316C493.196 45.9223 493.731 47.8758 494.759 49.5381C497.023 53.876 501.417 58.2957 507.826 62.7154Z" fill="#FF97D3" stroke="#263C61" stroke-width="1.08" stroke-miterlimit="10"/>
<path d="M557.021 62.7154C557.115 62.7433 557.214 62.7433 557.309 62.7154C557.402 62.7482 557.503 62.7482 557.596 62.7154C564.005 58.2957 568.4 53.876 570.683 49.5381C571.71 47.8758 572.245 45.9223 572.218 43.9316C572.234 42.0767 571.706 40.2628 570.707 38.7436C569.709 37.2244 568.291 36.0757 566.651 35.458C565.01 34.8404 563.23 34.7847 561.558 35.2988C559.887 35.8128 558.408 36.8709 557.328 38.3251C556.248 36.8709 554.769 35.8128 553.097 35.2988C551.426 34.7847 549.645 34.8404 548.005 35.458C546.365 36.0757 544.946 37.2244 543.948 38.7436C542.95 40.2628 542.422 42.0767 542.438 43.9316C542.41 45.9223 542.945 47.8758 543.973 49.5381C546.218 53.876 550.631 58.2957 557.021 62.7154Z" fill="#FFBC66" stroke="#263C61" stroke-width="1.08" stroke-miterlimit="10"/>
</svg>
