<svg width="300" height="393" viewBox="0 0 300 393" fill="none" xmlns="http://www.w3.org/2000/svg">
<path d="M169.859 41.8786C172.931 38.1206 174.874 33.568 175.462 28.7497C176.049 23.9314 175.257 19.0453 173.178 14.6593C171.098 10.2733 167.817 6.56744 163.715 3.97248C159.612 1.37752 154.858 0 150.004 0C145.15 0 140.396 1.37752 136.294 3.97248C132.192 6.56744 128.91 10.2733 126.831 14.6593C124.751 19.0453 123.959 23.9314 124.547 28.7497C125.134 33.568 127.077 38.1206 130.149 41.8786C55.4698 57.3654 0 157.6 0 244.862C0 334.35 58.8699 392.178 150.004 392.178C241.138 392.178 300 334.35 300 244.862C300 157.6 244.53 57.3654 169.859 41.8786ZM135.94 25.6885C135.94 22.9069 136.765 20.1878 138.31 17.875C139.856 15.5622 142.052 13.7596 144.622 12.6951C147.192 11.6307 150.02 11.3522 152.748 11.8948C155.476 12.4375 157.982 13.7769 159.949 15.7438C161.916 17.7107 163.255 20.2166 163.798 22.9448C164.34 25.6729 164.062 28.5007 162.998 31.0705C161.933 33.6404 160.13 35.8369 157.818 37.3822C155.505 38.9276 152.786 39.7524 150.004 39.7524C146.274 39.7524 142.697 38.2707 140.059 35.6332C137.422 32.9957 135.94 29.4185 135.94 25.6885ZM150.004 51.3345C216.601 51.3345 270.391 127.263 284.662 205.21L259.637 193.14C258.687 192.682 257.631 192.491 256.581 192.589C255.532 192.686 254.528 193.069 253.68 193.694L241.271 202.853L228.034 200.172V140.028C228.034 138.492 227.424 137.019 226.338 135.933C225.252 134.847 223.779 134.237 222.243 134.237H77.7569C76.2211 134.237 74.7481 134.847 73.6621 135.933C72.576 137.019 71.9659 138.492 71.9659 140.028V200.172L58.7293 202.853L46.3199 193.694C45.4716 193.069 44.4685 192.686 43.4188 192.589C42.3691 192.491 41.3127 192.682 40.3635 193.14L15.3545 205.161C29.6335 127.247 83.4156 51.3345 150.004 51.3345ZM83.548 205.028V145.794H216.46V250.86H83.548V205.028ZM150.004 380.596C83.093 380.596 11.5903 344.94 11.5903 244.862C11.6201 236.233 12.1726 227.613 13.2449 219.051L42.2249 205.045L53.9062 213.665C54.5584 214.145 55.304 214.483 56.0949 214.657C56.8858 214.831 57.7043 214.837 58.4976 214.675L71.9659 211.953V256.626C71.9659 258.162 72.576 259.635 73.6621 260.721C74.7481 261.807 76.2211 262.417 77.7569 262.417H222.251C223.787 262.417 225.26 261.807 226.346 260.721C227.432 259.635 228.042 258.162 228.042 256.626V211.953L241.511 214.675C242.304 214.837 243.123 214.831 243.913 214.657C244.704 214.483 245.45 214.145 246.102 213.665L257.75 205.061L286.813 219.084C287.865 227.634 288.401 236.24 288.418 244.854C288.418 344.94 216.915 380.596 150.004 380.596Z" fill="black"/>
<path d="M82.7207 205.028V145.794H215.633V250.844H82.7207V205.028Z" fill="white"/>
<path d="M150.004 51.3345C216.593 51.3345 270.391 127.263 284.662 205.21L259.645 193.14C258.696 192.682 257.639 192.491 256.589 192.589C255.54 192.686 254.537 193.069 253.688 193.694L241.279 202.853L228.042 200.172V140.028C228.042 138.492 227.432 137.019 226.346 135.933C225.26 134.847 223.787 134.237 222.251 134.237H77.7569C76.2211 134.237 74.7481 134.847 73.6621 135.933C72.576 137.019 71.9659 138.492 71.9659 140.028V200.172L58.7293 202.853L46.3199 193.694C45.4716 193.069 44.4685 192.686 43.4188 192.589C42.3691 192.491 41.3127 192.682 40.3635 193.14L15.3545 205.161C29.6335 127.247 83.4156 51.3345 150.004 51.3345Z" fill="#0E85FD"/>
<path d="M258.007 205.21L286.813 219.109C287.865 227.659 288.401 236.265 288.418 244.879C288.418 344.94 216.915 380.596 150.004 380.596C83.093 380.596 11.5903 344.94 11.5903 244.862C11.6201 236.233 12.1726 227.614 13.2449 219.051L41.9436 205.21H42.4069L53.9062 213.69C54.5584 214.17 55.304 214.508 56.0949 214.682C56.8858 214.856 57.7043 214.862 58.4977 214.699L71.9659 211.978V256.651C71.9659 258.187 72.576 259.66 73.6621 260.746C74.7481 261.832 76.2211 262.442 77.7569 262.442H222.251C223.787 262.442 225.26 261.832 226.346 260.746C227.432 259.66 228.042 258.187 228.042 256.651V211.978L241.511 214.699C242.304 214.862 243.123 214.856 243.913 214.682C244.704 214.508 245.45 214.17 246.102 213.69L257.552 205.21H258.007Z" fill="#B8417A"/>
<path d="M274.354 239.071C272.818 239.071 271.345 239.681 270.259 240.767C269.173 241.853 268.563 243.326 268.563 244.862C268.726 259.354 266.687 273.787 262.516 287.666C262.057 289.131 262.198 290.718 262.909 292.078C263.619 293.438 264.841 294.461 266.305 294.922C266.865 295.104 267.452 295.194 268.042 295.186C269.273 295.185 270.472 294.791 271.464 294.062C272.457 293.333 273.191 292.307 273.56 291.133C278.103 276.135 280.335 260.532 280.178 244.862C280.178 243.326 279.568 241.853 278.482 240.767C277.396 239.681 275.923 239.071 274.387 239.071H274.354Z" fill="black"/>
<circle cx="99.5" cy="314.5" r="15.5" fill="#0D4F33"/>
<circle cx="150.5" cy="332.5" r="15.5" fill="#FFBC66"/>
<circle cx="201.5" cy="314.5" r="15.5" fill="#7E33A0"/>
</svg>
