<svg xmlns="http://www.w3.org/2000/svg" xmlns:xlink="http://www.w3.org/1999/xlink" viewBox="0 0 118.63 127.35"><defs><style>.cls-1,.cls-15,.cls-16,.cls-19{fill:none;}.cls-2{fill:#ffb864;}.cls-3{fill:#fecac6;}.cls-4{clip-path:url(#clip-path);}.cls-5{fill:#fff;}.cls-6{clip-path:url(#clip-path-2);}.cls-7{fill:#ba7c34;}.cls-8{fill:#020204;}.cls-9{clip-path:url(#clip-path-3);}.cls-10{fill:#138538;}.cls-11{fill:#29a352;}.cls-12{clip-path:url(#clip-path-4);}.cls-13{fill:#82bfec;}.cls-14{fill:#522229;}.cls-15{stroke:#020204;}.cls-15,.cls-16,.cls-19{stroke-miterlimit:10;stroke-width:1.42px;}.cls-16{stroke:#ba7c34;}.cls-17{clip-path:url(#clip-path-5);}.cls-18{fill:#d45165;}.cls-19{stroke:#c2c2c2;}.cls-20{fill:#f73e91;opacity:0.4;}</style><clipPath id="clip-path"><path class="cls-1" d="M86,73.73c-12.14-8.9-26.73-8.18-26.73-8.18s-14.58-.72-26.72,8.18c-17.29,12.68-29.45,37.78,26.72,38C115.46,111.51,103.3,86.41,86,73.73Z"/></clipPath><clipPath id="clip-path-2"><path class="cls-1" d="M93.81,29.37a50.92,50.92,0,0,0-69,0c-22.33,20.91-38,62.29,34.52,62.68C131.85,91.66,116.14,50.28,93.81,29.37Z"/></clipPath><clipPath id="clip-path-3"><ellipse id="SVGID" class="cls-1" cx="38.72" cy="54.86" rx="8.73" ry="8.55"/></clipPath><clipPath id="clip-path-4"><ellipse id="SVGID-2" data-name="SVGID" class="cls-1" cx="79.85" cy="54.86" rx="8.73" ry="8.55"/></clipPath><clipPath id="clip-path-5"><path id="SVGID-3" data-name="SVGID" class="cls-1" d="M44.89,63.49c1.6,3.21,9.91,6.82,14.74-.33,3.29,5.53,11,5,14.25-.65C81.24,95.54,36.63,91.1,44.89,63.49Z"/></clipPath></defs><g id="Layer_2" data-name="Layer 2"><g id="OBJECTS"><path class="cls-2" d="M73.75,18.77A66.68,66.68,0,0,1,104.18,0a45.73,45.73,0,0,1,5.41,13.64c1.84,8.58,1.94,20.66-5,34.67C78,43.32,73.75,18.77,73.75,18.77Z"/><path class="cls-2" d="M44.82,18.77A63.72,63.72,0,0,0,29.9,6.57,63.78,63.78,0,0,0,14.39,0,51.17,51.17,0,0,0,8.18,28.2,52.14,52.14,0,0,0,14,48.31C40.55,43.32,44.82,18.77,44.82,18.77Z"/><path class="cls-3" d="M101.24,38.4C90.17,34.71,84.56,24.19,82.45,20.25a84.83,84.83,0,0,1,7-6.65c7-5.9,11.34-7.09,12.84-6.87.65.72,3.08,5,2.17,14.13C103.9,26.13,102.54,34.45,101.24,38.4Z"/><path class="cls-3" d="M16.84,37.85C15.53,33.9,13.2,28,13.2,21.1c0-9.16,2.45-13.65,3.11-14.37,1.51-.23,5.89,1,13,7a86.33,86.33,0,0,1,6.83,6.53C34,24.19,27.91,34.17,16.84,37.85Z"/><path class="cls-2" d="M93.81,29.37a50.92,50.92,0,0,0-69,0c-22.33,20.91-38,62.29,34.52,62.68C131.85,91.66,116.14,50.28,93.81,29.37Z"/><g class="cls-4"><path class="cls-2" d="M73.78,89.33c-6.58-8.9-14.5-8.18-14.5-8.18s-7.91-.72-14.49,8.18c-9.38,12.68-16,37.78,14.49,38C89.75,127.11,83.16,102,73.78,89.33Z"/><ellipse class="cls-5" cx="59.41" cy="102.56" rx="11.71" ry="13.91"/></g><g class="cls-6"><path class="cls-5" d="M87.71,67.79C74.8,53.93,59.28,55.06,59.28,55.06S43.77,53.93,30.86,67.79C12.47,87.53-.46,126.58,59.28,127,119,126.58,106.1,87.53,87.71,67.79Z"/><path class="cls-7" d="M44.82,13.55S46.17,21.32,49.63,27C52.74,24.43,55,13.55,55,13.55S54.77,26,59.28,32.46c5.41-3.21,5.77-19.8,5.77-19.8s-.79,10.05,3.89,14.21c4.85-4.22,4.81-14.21,4.81-14.21S56,7.84,44.82,13.55Z"/></g><path class="cls-2" d="M23,33.77s-3.91-3.4-3-7c1.38.36,4.06,3,4.06,3S21.21,25,22.86,23.06c3.13.26,4.41,4.59,4.41,4.59s.62-6.08,1.69-7.47c2.55,2,3.7,7.2,3.7,7.2"/><path class="cls-2" d="M82.93,24.23s3.94-3.93,7.6-3.89c-1.73,3.12-2.47,4.8-2.47,4.8s3.87-1.94,5.58-1.64a9.83,9.83,0,0,1-2.49,5s3.72-.69,5.07-.88c0,2.38-2.78,5.78-2.78,5.78"/><ellipse class="cls-8" cx="38.72" cy="54.86" rx="10.91" ry="10.69"/><g class="cls-9"><ellipse class="cls-10" cx="35.69" cy="63.07" rx="8.73" ry="8.55"/><path class="cls-11" d="M46.12,47a4.37,4.37,0,1,1-4.37-4.28A4.33,4.33,0,0,1,46.12,47Z"/></g><ellipse class="cls-8" cx="79.85" cy="54.86" rx="10.91" ry="10.69"/><g class="cls-12"><ellipse class="cls-10" cx="76.82" cy="63.07" rx="8.73" ry="8.55"/><path class="cls-11" d="M87.24,47a4.37,4.37,0,1,1-4.37-4.28A4.33,4.33,0,0,1,87.24,47Z"/></g><path class="cls-13" d="M83.93,60.69a5,5,0,1,0,4.95-5A5,5,0,0,0,83.93,60.69Z"/><path class="cls-13" d="M90.9,67.65a2,2,0,1,0,2-2A2,2,0,0,0,90.9,67.65Z"/><path class="cls-14" d="M34.23,36.84a7,7,0,0,1,7.09-1.19c2.87,1.49,1.5-2.64-3.55-2.42S31.64,38.24,34.23,36.84Z"/><path class="cls-14" d="M82.56,36.84a7,7,0,0,0-7.08-1.19C72.6,37.14,74,33,79,33.23S85.16,38.24,82.56,36.84Z"/><path class="cls-8" d="M59.28,59.37,63,57.06a1.22,1.22,0,0,0,.41-1.65c-.38-.68-1.43-.85-2.12-1a9.26,9.26,0,0,0-3.48-.09c-.86.14-2.45.37-2.73,1.35a1.21,1.21,0,0,0,.53,1.38Z"/><path class="cls-2" d="M16.84,83.13C4,79.13,1.43,71.68,1.43,71.68l3.73-1.81A10.81,10.81,0,0,1,0,63a21.2,21.2,0,0,0,5.16-.83,9.52,9.52,0,0,1-2.41-1.83,9.34,9.34,0,0,1-1.69-2.46,15.86,15.86,0,0,0,3.7-2A13.36,13.36,0,0,0,10,49C15,63,16.84,83.13,16.84,83.13Z"/><path class="cls-2" d="M101.79,83.13c12.79-4,15.41-11.45,15.41-11.45l-3.73-1.81a10.84,10.84,0,0,0,3.08-2.63A11.05,11.05,0,0,0,118.63,63a21.1,21.1,0,0,1-5.16-.83,9.7,9.7,0,0,0,2.41-1.83,9.59,9.59,0,0,0,1.69-2.46,15.91,15.91,0,0,1-3.71-2A13.29,13.29,0,0,1,108.65,49C103.64,63,101.79,83.13,101.79,83.13Z"/><line class="cls-15" x1="23.87" y1="70.32" x2="15.28" y2="72.99"/><line class="cls-15" x1="22.51" y1="66.61" x2="12.15" y2="66.61"/><line class="cls-15" x1="22.51" y1="62.07" x2="15.28" y2="60.22"/><line class="cls-15" x1="94.7" y1="70.32" x2="103.28" y2="72.99"/><line class="cls-15" x1="96.06" y1="66.61" x2="106.42" y2="66.61"/><line class="cls-15" x1="96.06" y1="62.07" x2="103.28" y2="60.22"/><path class="cls-16" d="M42.05,91.55s18.35,2.18,35.3-.1"/><path class="cls-16" d="M5.11,59.37s5.83-.81,8.09-2.83"/><path class="cls-16" d="M3.57,65.46s4.75.23,5.59-.6"/><path class="cls-16" d="M5.59,74.14a6.1,6.1,0,0,0,5.71,0"/><path class="cls-16" d="M99.67,54.8s7.47,2.45,9.26,1.74"/><path class="cls-16" d="M104.86,63s5.23.87,6.92,0"/><path class="cls-16" d="M105.72,71.65a19.44,19.44,0,0,0,5.55,0"/><path class="cls-16" d="M101.24,76.49a16.3,16.3,0,0,0,6.38,1.57"/><path class="cls-16" d="M11.89,45.43c3.21-5.54,5.51-9,9.71-12.21"/><path class="cls-16" d="M94.7,32.1s8.69,7,11.55,12.59"/><path class="cls-8" d="M44.89,63.49c1.6,3.21,9.91,6.82,14.74-.33,3.29,5.53,11,5,14.25-.65C81.24,95.54,36.63,91.1,44.89,63.49Z"/><g class="cls-17"><ellipse class="cls-18" cx="59.7" cy="88.64" rx="13.68" ry="13.96"/></g><path class="cls-5" d="M50.13,65.62s0,4.56,1.45,4.78,1.25-4.12,1.25-4.12Z"/><path class="cls-5" d="M66.77,65.62s0,4.56-1.44,4.78-1.25-4.12-1.25-4.12Z"/><path class="cls-19" d="M44.89,63.49c1.6,3.21,9.91,6.82,14.74-.33,3.29,5.53,11,5,14.25-.65"/><path class="cls-13" d="M34.79,60.69a5,5,0,1,1-5-5A5,5,0,0,1,34.79,60.69Z"/><path class="cls-5" d="M49.52,65.51c0,3.39-4.84,6.14-10.8,6.14S27.93,68.9,27.93,65.51s4.83-6.14,10.79-6.14S49.52,62.12,49.52,65.51Z"/><path class="cls-5" d="M90.64,65.51c0,3.39-4.83,6.14-10.79,6.14s-10.8-2.75-10.8-6.14,4.83-6.14,10.8-6.14S90.64,62.12,90.64,65.51Z"/><path class="cls-20" d="M42.43,65.17c0,1.62-2.46,2.93-5.49,2.93s-5.49-1.31-5.49-2.93,2.46-2.92,5.49-2.92S42.43,63.56,42.43,65.17Z"/><path class="cls-20" d="M87.12,65.17c0,1.62-2.46,2.93-5.49,2.93s-5.49-1.31-5.49-2.93,2.46-2.92,5.49-2.92S87.12,63.56,87.12,65.17Z"/><path class="cls-19" d="M42.05,71.35c4.87-.86,8.72-4,7.47-7.08"/><path class="cls-19" d="M70.33,62.51c-1.85,1.95-2.44,4.38.79,6.61a10.68,10.68,0,0,0,6.62,2.23"/><path class="cls-19" d="M43.33,82.07c6.22,8.56,20.14,11.56,31.19,1.75"/><path class="cls-13" d="M27.81,67.65a2,2,0,1,1-2-2A2,2,0,0,1,27.81,67.65Z"/></g></g></svg>