<svg xmlns="http://www.w3.org/2000/svg" xmlns:xlink="http://www.w3.org/1999/xlink" viewBox="0 0 118.63 134.88"><defs><style>.cls-1,.cls-15,.cls-16,.cls-17{fill:none;}.cls-2{fill:#ffb864;}.cls-3{fill:#fecac6;}.cls-4{clip-path:url(#clip-path);}.cls-5{fill:#fff;}.cls-6{clip-path:url(#clip-path-2);}.cls-7{fill:#82bfec;}.cls-8{fill:#ba7c34;}.cls-9{fill:#020204;}.cls-10{clip-path:url(#clip-path-3);}.cls-11{fill:#138538;}.cls-12{fill:#29a352;}.cls-13{clip-path:url(#clip-path-4);}.cls-14{fill:#522229;}.cls-15{stroke:#020204;}.cls-15,.cls-16,.cls-17{stroke-miterlimit:10;stroke-width:1.42px;}.cls-16{stroke:#ba7c34;}.cls-17{stroke:#c2c2c2;}</style><clipPath id="clip-path"><path class="cls-1" d="M86,73.73c-12.14-8.9-26.73-8.18-26.73-8.18s-14.58-.72-26.72,8.18c-17.29,12.68-29.45,37.78,26.72,38C115.46,111.51,103.3,86.41,86,73.73Z"/></clipPath><clipPath id="clip-path-2"><path class="cls-1" d="M93.81,29.37a50.92,50.92,0,0,0-69,0c-22.33,20.91-38,62.29,34.52,62.68C131.85,91.66,116.14,50.28,93.81,29.37Z"/></clipPath><clipPath id="clip-path-3"><ellipse id="SVGID" class="cls-1" cx="36.05" cy="61.27" rx="12.03" ry="9.04"/></clipPath><clipPath id="clip-path-4"><ellipse id="SVGID-2" data-name="SVGID" class="cls-1" cx="83.35" cy="61.27" rx="12.03" ry="9.04"/></clipPath></defs><g id="Layer_2" data-name="Layer 2"><g id="OBJECTS"><path class="cls-2" d="M73.75,18.77A66.68,66.68,0,0,1,104.18,0a45.73,45.73,0,0,1,5.41,13.64c1.84,8.58,1.94,20.66-5,34.67C78,43.32,73.75,18.77,73.75,18.77Z"/><path class="cls-2" d="M44.82,18.77A63.72,63.72,0,0,0,29.9,6.57,63.78,63.78,0,0,0,14.39,0,51.17,51.17,0,0,0,8.18,28.2,52.14,52.14,0,0,0,14,48.31C40.55,43.32,44.82,18.77,44.82,18.77Z"/><path class="cls-3" d="M101.24,38.4C90.17,34.71,84.56,24.19,82.45,20.25a84.83,84.83,0,0,1,7-6.65c7-5.9,11.34-7.09,12.84-6.87.65.72,3.08,5,2.17,14.13C103.9,26.13,102.54,34.45,101.24,38.4Z"/><path class="cls-3" d="M16.84,37.85C15.53,33.9,13.2,28,13.2,21.1c0-9.16,2.45-13.65,3.11-14.37,1.51-.23,5.89,1,13,7a86.33,86.33,0,0,1,6.83,6.53C34,24.19,27.91,34.17,16.84,37.85Z"/><path class="cls-2" d="M93.81,29.37a50.92,50.92,0,0,0-69,0c-22.33,20.91-38,62.29,34.52,62.68C131.85,91.66,116.14,50.28,93.81,29.37Z"/><g class="cls-4"><path class="cls-2" d="M73.78,89.33c-6.58-8.9-14.5-8.18-14.5-8.18s-7.91-.72-14.49,8.18c-9.38,12.68-16,37.78,14.49,38C89.75,127.11,83.16,102,73.78,89.33Z"/><ellipse class="cls-5" cx="59.41" cy="102.56" rx="11.71" ry="13.91"/></g><g class="cls-6"><path class="cls-5" d="M87.71,75.71C74.8,61.86,59.28,63,59.28,63S43.77,61.86,30.86,75.71C12.47,95.45-.46,134.5,59.28,134.88,119,134.5,106.1,95.45,87.71,75.71Z"/><path class="cls-7" d="M27.13,68.56C23.57,72,22.55,74.36,25,76.78s-5.58,3.83-3.68,8.13a8.08,8.08,0,0,1-.94,7.88l20.67,3.39c5.18-6.28-.51-8.93-1-11.74s4.9-5,1.78-8.36a6.27,6.27,0,0,1-1.27-7Z"/><path class="cls-7" d="M91,68.56c3.56,3.46,4.58,5.8,2.12,8.22s5.58,3.83,3.68,8.13a8.08,8.08,0,0,0,.94,7.88L77,96.18c-5.18-6.28.51-8.93,1-11.74s-4.9-5-1.79-8.36a6.26,6.26,0,0,0,1.28-7Z"/><path class="cls-8" d="M44.82,14.78S46.17,26,49.63,34.11C52.74,30.45,55,14.78,55,14.78s-.24,18,4.27,27.23c5.41-4.63,5.77-28.52,5.77-28.52S64.26,28,68.94,34c4.85-6.08,4.81-20.47,4.81-20.47S56,6.56,44.82,14.78Z"/></g><path class="cls-2" d="M23,33.77s-3.91-3.4-3-7c1.38.36,4.06,3,4.06,3S21.21,25,22.86,23.06c3.13.26,4.41,4.59,4.41,4.59s.62-6.08,1.69-7.47c2.55,2,3.7,7.2,3.7,7.2"/><path class="cls-2" d="M82.93,24.23s3.94-3.93,7.6-3.89c-1.73,3.12-2.47,4.8-2.47,4.8s3.87-1.94,5.58-1.64a9.83,9.83,0,0,1-2.49,5s3.72-.69,5.07-.89c0,2.39-2.78,5.79-2.78,5.79"/><ellipse class="cls-9" cx="36.05" cy="61.27" rx="15.04" ry="11.29"/><g class="cls-10"><ellipse class="cls-11" cx="27.53" cy="62.51" rx="8.77" ry="6.59"/><path class="cls-12" d="M44.08,67.7c-2.42,0-4.39-1.48-4.39-3.3s2-3.29,4.39-3.29,4.39,1.47,4.39,3.29S46.5,67.7,44.08,67.7Z"/></g><ellipse class="cls-9" cx="83.35" cy="61.27" rx="15.04" ry="11.29"/><g class="cls-13"><ellipse class="cls-11" cx="74.83" cy="62.51" rx="8.77" ry="6.59"/><path class="cls-12" d="M91.38,67.7C89,67.7,87,66.22,87,64.4s2-3.29,4.39-3.29,4.39,1.47,4.39,3.29S93.8,67.7,91.38,67.7Z"/></g><path class="cls-14" d="M40.51,41.77a7,7,0,0,1-6.07,3.83c-3.23-.27-.37,3,4.2.87S42.37,39.48,40.51,41.77Z"/><path class="cls-14" d="M75.71,42.42a7,7,0,0,0,6.76,2.43c3.09-1,1,2.86-3.91,1.75S73.4,40.58,75.71,42.42Z"/><path class="cls-9" d="M59.28,67.29,63,65a1.22,1.22,0,0,0,.41-1.65c-.38-.67-1.43-.85-2.12-1a9.26,9.26,0,0,0-3.48-.09c-.86.15-2.45.37-2.73,1.35A1.21,1.21,0,0,0,55.59,65Z"/><path class="cls-2" d="M16.84,83.13C4,79.13,1.43,71.68,1.43,71.68l3.73-1.81A10.81,10.81,0,0,1,0,63a21.2,21.2,0,0,0,5.16-.83,9.52,9.52,0,0,1-2.41-1.83,9.34,9.34,0,0,1-1.69-2.46,15.86,15.86,0,0,0,3.7-2A13.36,13.36,0,0,0,10,49C15,63,16.84,83.13,16.84,83.13Z"/><path class="cls-2" d="M101.79,83.13c12.79-4,15.41-11.45,15.41-11.45l-3.73-1.81a10.84,10.84,0,0,0,3.08-2.63A11.05,11.05,0,0,0,118.63,63a21.1,21.1,0,0,1-5.16-.83,9.7,9.7,0,0,0,2.41-1.83,9.59,9.59,0,0,0,1.69-2.46,15.91,15.91,0,0,1-3.71-2A13.29,13.29,0,0,1,108.65,49C103.64,63,101.79,83.13,101.79,83.13Z"/><line class="cls-15" x1="22.28" y1="73.93" x2="15.28" y2="75.63"/><line class="cls-15" x1="22.51" y1="71.56" x2="12.15" y2="71.56"/><line class="cls-15" x1="22.51" y1="68.67" x2="15.28" y2="67.5"/><line class="cls-15" x1="96.28" y1="73.93" x2="103.28" y2="75.63"/><line class="cls-15" x1="96.06" y1="71.56" x2="106.42" y2="71.56"/><line class="cls-15" x1="96.06" y1="68.67" x2="103.28" y2="67.5"/><path class="cls-16" d="M42.05,91.55s18.35,2.18,35.3-.1"/><path class="cls-16" d="M5.11,59.37s5.83-.81,8.09-2.83"/><path class="cls-16" d="M3.57,65.46s4.75.23,5.59-.6"/><path class="cls-16" d="M5.59,74.14a6.1,6.1,0,0,0,5.71,0"/><path class="cls-16" d="M99.67,54.8s7.47,2.45,9.26,1.74"/><path class="cls-16" d="M104.86,63s5.23.87,6.92,0"/><path class="cls-16" d="M105.72,71.65a19.44,19.44,0,0,0,5.55,0"/><path class="cls-16" d="M100.71,77.81a16.3,16.3,0,0,0,6.38,1.57"/><path class="cls-16" d="M11.89,45.42c3.21-5.53,5.51-9,9.71-12.2"/><path class="cls-16" d="M94.7,32.1s8.69,7,11.55,12.59"/><path class="cls-12" d="M42.11,59.24a2.36,2.36,0,1,1,2.78-2.32A2.59,2.59,0,0,1,42.11,59.24Z"/><ellipse class="cls-12" cx="86.77" cy="55.47" rx="3.2" ry="2.4"/><path class="cls-17" d="M48.08,77.81s1.8-1.34,4.66,0,4.47-2.72,7-.6,8.3-5.79,10.57.84"/></g></g></svg>