<svg xmlns="http://www.w3.org/2000/svg" viewBox="0 0 479.06 748.61"><defs><style>.cls-1{fill:#df8e03;}.cls-2{fill:#a54504;}.cls-3{fill:#fff;}.cls-4{fill:#b2b2b2;}</style></defs><g id="Layer_2" data-name="Layer 2"><g id="Object"><path class="cls-1" d="M101.63,575.47S43.3,527,17.71,555.41s-22.13,84.27,2.15,113.22c0,0-19.06-2.94-19.84,28.54s22.3,40.28,42.86,42,108.69,0,108.69,0Z"/><path class="cls-2" d="M25.47,738.4C7.74,725.46,15.68,692,15.76,694.19c1.47-4.51,8.54-2.1,6.94,2.38h0C14.47,720.2,36.77,737,25.47,738.4Z"/><path class="cls-2" d="M50.46,741.9c-17.72-12.94-9.79-46.42-9.71-44.21,1.48-4.51,8.54-2.1,6.94,2.38a43.81,43.81,0,0,0,5.83,36.14A3.69,3.69,0,0,1,50.46,741.9Z"/><path class="cls-2" d="M78.6,559.72S74.81,639,105.88,684.78c0,0-22.29,18.9-9.32,55l39.78-.44,2.84-85.25Z"/><path class="cls-2" d="M19.86,668.63a69.23,69.23,0,0,1-5.26-7.18c6.72,8,13.61,14,25.21,18.74a112,112,0,0,1-27-10.47A15.39,15.39,0,0,1,19.86,668.63Z"/><path class="cls-2" d="M212.86,731.4s8.65,11.86,58,0L272.46,528l-84-6.48Z"/><path class="cls-1" d="M377.43,571.33s58.33-48.51,83.93-20.06,22.12,84.27-2.16,113.22c0,0,19.07-2.94,19.84,28.53s-22.3,40.29-42.86,42-108.68,0-108.68,0Z"/><path class="cls-2" d="M453.6,734.26a3.69,3.69,0,0,1-3.06-5.69,43.76,43.76,0,0,0,5.83-36.14c-1.59-4.47,5.46-6.9,6.94-2.38C463.42,688.28,471.32,721.12,453.6,734.26Z"/><path class="cls-2" d="M428.6,737.76a3.69,3.69,0,0,1-3.05-5.69,43.78,43.78,0,0,0,5.82-36.14c-1.59-4.46,5.46-6.89,6.94-2.38C438.42,691.78,446.32,724.63,428.6,737.76Z"/><path class="cls-2" d="M397.46,554.26s3.79,79.25-27.28,125.06c0,0,21.85,20.16,8.89,56.3l-39.31-.51-2.88-86.45Z"/><path class="cls-1" d="M250.31,498.94C240.1,547.17,232,668.88,229,719.44c12.61,26.41-162.62,55.12-107.75-33.24-7.7-13-78.68-173.56-39.07-236.41C122.48,481,185.32,500.57,250.31,498.94Z"/><path class="cls-2" d="M139.19,747a3.63,3.63,0,0,1-3.32-2.1c-12.6-26.79.72-41.34,1.3-41.94,3.2-3.48,8.63,1.59,5.34,5-.46.52-10.34,11.81,0,33.79A3.69,3.69,0,0,1,139.19,747Z"/><path class="cls-2" d="M172.73,748.61a3.67,3.67,0,0,1-3.44-2.42c-8.53-23.36,3.07-36,3.57-36.5,3.21-3.48,8.63,1.61,5.34,5-.41.45-8.9,10.13-2,29A3.69,3.69,0,0,1,172.73,748.61Z"/><path class="cls-1" d="M405.92,524.36c-8.53,71.61-50.29,158.52-50.29,158.52,54.9,88.26-120.27,59.74-107.75,33.25l-8.75-142.8c.72-12.17,3.71-63,4.38-74.31,58.88.28,115.9-16.8,154.65-44C405.93,477.13,408.84,497.18,405.92,524.36Z"/><path class="cls-2" d="M337.69,743.65a3.69,3.69,0,0,1-3.32-5.23c10.36-22,.42-33.33,0-33.8-3.24-3.42,2.15-8.5,5.35-5,.57.61,13.9,15.15,1.3,41.94A3.68,3.68,0,0,1,337.69,743.65Z"/><path class="cls-2" d="M304.14,745.3a3.69,3.69,0,0,1-3.44-4.93c6.89-18.88-1.66-28.56-2-29-3.24-3.42,2.15-8.51,5.35-5,.5.53,12.1,13.15,3.57,36.51A3.68,3.68,0,0,1,304.14,745.3Z"/><path class="cls-2" d="M242.27,578c-45.71,3.71-107.12-60.7-77.05-51.61,29.71,40.69,99.26,68.51,153.8-.27,3.8-4.53,10.93,1.58,6.92,6C299.46,562.58,271.33,578,242.27,578Z"/><path class="cls-2" d="M322.9,129.46S341.15,5.67,436.41,7.6c25.08,53.89,41.68,161.22-30,214.71Z"/><path class="cls-1" d="M446.67,37.51C441.37,19.62,436.41,7.6,436.41,7.6,341.15,5.67,322.9,129.46,322.9,129.46l25,27.75C352.28,127.7,371.38,44.43,446.67,37.51Z"/><path class="cls-2" d="M170.51,121.88S152.26-1.91,57,0C31.92,53.91,15.32,161.24,87,214.73Z"/><path class="cls-1" d="M46.73,29.93C52,12,57,0,57,0c95.26-1.93,113.51,121.86,113.51,121.86l-25,27.75C141.13,120.11,122,36.85,46.73,29.93Z"/><path d="M378.46,166.87a6.46,6.46,0,0,1,.43-2.58l.7,1.4-.25.3-.3-.32.28.34Z"/><path class="cls-3" d="M459.9,352.13C457.3,555.67-22.45,538.7,34.74,318.8c79,90.17,139.48-14.63,215.69-19.08,69.95,1.44,142.07,103.34,206.29,27.48A99.41,99.41,0,0,1,459.9,352.13Z"/><path class="cls-2" d="M402.85,470.44v0c-79.87,63-251.47,59.44-325.23-9,.09-.21,4.49-11.44,4.56-11.68,74.76,62.44,237.07,65,316,5.23C398.2,455.17,402.81,470.29,402.85,470.44Z"/><path class="cls-1" d="M457.3,328.73c-64.41,75.86-136.21-26-206.29-27.48-76,4.44-137,109.21-215.69,19.08,4.9-18.93,23.19-33.36,24.5-53.63a166.21,166.21,0,0,1,37.56-94.11,23.36,23.36,0,0,0-16.54-11.85c1.08-1.43,29.58-5.63,37.56,4.92-3.52-12.64-13.55-27.52-34.46-28.06,0,0,24.21-7.12,44.84,5.57,38-30.65,94.55-33.45,142.75-31.3a166,166,0,0,1,97.74,31.67c20.74-13.2,45.43-5.94,45.43-5.94-21.23.68-30.82,15.36-34.47,28.06,7.72-10.59,37.23-6.24,37.57-4.92a23.37,23.37,0,0,0-17,12.66c23.9,28.56,36.85,67.08,37.84,106.08C440,297.33,454.31,311.36,457.3,328.73Z"/><path d="M117.63,166.87l-.85-.86.35-.35-.38.32-.26-.25.69-1.42A5.76,5.76,0,0,1,117.63,166.87Zm-1-1.21h0Z"/><path d="M265.6,358.27H227a13.87,13.87,0,0,1-13.88-13.88V325.22a4.31,4.31,0,0,1,4.31-4.31h57.72a4.31,4.31,0,0,1,4.31,4.31C279.07,337,283.37,357.87,265.6,358.27Z"/><path class="cls-2" d="M459.2,664.49a69.23,69.23,0,0,0,5.26-7.18c-6.72,8-13.61,14-25.2,18.73a112.42,112.42,0,0,0,27-10.46A15.45,15.45,0,0,0,459.2,664.49Z"/><path class="cls-4" d="M349.37,406.08c-8.8,8.53-17.24-2.26-23.15-8.35h-158c-6.66,6.7-17.14,17.06-25.88,7.15-8-9.73,2.46-17.82,9.74-23.42l-7.5-7.5c-9-8.77,4.94-22.76,13.72-13.72,1.06,1.21,11,10.62,11.44,11.89h19.5c9.62,27.46,45.41,25.11,55.15,0h1.34c9.78,25.14,45.54,27.44,55.15,0h22.41c.54-1.9,10.39-10.84,11.76-12.45,8.76-9,22.76,4.94,13.71,13.72l-8.69,8.69C346.23,388,358.23,397.18,349.37,406.08Z"/><path d="M301.27,358c-1.38,0-2.5,1.65-2.5,3.67-.87,22.69-27.17,29.83-41,15.92-12.76-11.1-5.66-26.21-11.67-25.79-5.05.53,1,15.39-11.17,25.79-13.86,13.9-40.16,6.78-41-15.92,0-2-1.12-3.67-2.5-3.67s-2.49,1.65-2.49,3.67c1,37.26,47.15,39.53,57.46,8.79,10.31,30.77,56.44,28.43,57.44-8.79C303.76,359.68,302.64,358,301.27,358Z"/><path d="M308.79,285.83c-4.09.14-6.26-5.51-3-8.1l51.52-43.28a4.59,4.59,0,1,1,5.9,7l-51.51,43.28A4.6,4.6,0,0,1,308.79,285.83Z"/><path d="M354.64,276.34c-.63,39-39.36,37.81-39.21-.69l29.29-24.6C350.64,256.06,354.64,265.5,354.64,276.34Z"/><path class="cls-3" d="M337,282.27c.12,8-12.48,8-12.36,0C324.55,274.25,337.15,274.25,337,282.27Z"/><path d="M183.83,285.83a4.6,4.6,0,0,1-3-1.08l-51.51-43.28a4.59,4.59,0,0,1,5.9-7l51.52,43.28C190.07,280.31,187.94,286,183.83,285.83Z"/><path d="M138,276.34c.63,39,39.36,37.81,39.21-.69l-29.29-24.6C142,256.06,138,265.5,138,276.34Z"/><path class="cls-3" d="M155.59,282.27c-.12,8,12.48,8,12.36,0C168.07,274.25,155.47,274.25,155.59,282.27Z"/></g></g></svg>