<svg xmlns="http://www.w3.org/2000/svg" viewBox="0 0 601.9 764.19"><defs><style>.cls-1{fill:#df8e03;}.cls-2{fill:#a54504;}.cls-3{fill:#fff;}.cls-4{fill:#fdfffe;}.cls-5{fill:#f91c1c;}</style></defs><g id="Layer_2" data-name="Layer 2"><g id="Object"><path class="cls-1" d="M524.82,611c-6.57-3.31-25.49-11-27.47-11.43-7.63-73-26-118.19-54.25-163.89l-291.22-5.89c-31,38-52.18,171.25-50.69,171-24.94,5.26-90.58,45.33-90.79,46,6.84,83.35,38.54,131.62,157.31,93.71,0-.11-.06-.22-.1-.33,24.52-3.46,93.83-13.77,120.71-14.29,59.6-1.53,117.39,8,154.32,15.72,106.31,30.82,147.12-16,150.21-90.09A407,407,0,0,0,524.82,611Z"/><path class="cls-2" d="M592.85,651.45C589.46,726,549.2,772.18,442.64,741.53c-36.89-7.71-94.77-17.24-154.32-15.71-26.86.51-96.24,10.84-120.7,14.29,0,.11.06.22.09.33-119,38.08-150.54-10.85-157.31-93.71,0,0,1-.66,2.87-1.79,15.17,89.36,71.66,91.43,154,67.6,0-.11-.05-.24-.09-.35,21.53-3.15,86.42-12.41,113.75-14L288,597.93v88.51a11.41,11.41,0,0,0,11.55,11.39c9.21.46,22.78,1.33,22.93-11.28V599.76l7,98.79c100.07-3.12,233.46,81.6,260-49.6C590.56,649.78,591.71,650.6,592.85,651.45Z"/><path class="cls-2" d="M379.11,129.46S397.36,5.67,492.62,7.6c25.08,53.89,41.68,161.22-30,214.71Z"/><path class="cls-1" d="M502.89,37.51C497.58,19.62,492.62,7.6,492.62,7.6,397.36,5.67,379.11,129.46,379.11,129.46l25,27.75C408.49,127.7,427.59,44.43,502.89,37.51Z"/><path class="cls-2" d="M226.72,121.88S208.47-1.91,113.21,0c-25.07,53.89-41.68,161.22,30,214.71Z"/><path class="cls-1" d="M103,29.93C108.25,12,113.21,0,113.21,0c95.26-1.93,113.51,121.86,113.51,121.86l-25,27.75C197.34,120.11,178.24,36.85,103,29.93Z"/><path d="M434.67,166.84a6.57,6.57,0,0,1,.43-2.56l.7,1.4A12.34,12.34,0,0,1,434.67,166.84Z"/><path class="cls-3" d="M515.41,353.65C512.82,557.19,33.07,540.22,90.26,320.33c79,90.16,139.48-14.63,215.68-19.08,69.95,1.44,142.07,103.34,206.3,27.48A99.27,99.27,0,0,1,515.41,353.65Z"/><path class="cls-2" d="M463.18,471.8c-78.47,66.47-255.65,64.12-330.08-5.61l6.68-15.37c74.91,61.69,237.21,63.39,314.83,4C457.24,459.68,460.15,465.35,463.18,471.8Z"/><path class="cls-1" d="M512.24,328.73C447.83,404.59,376,302.7,306,301.25c-76,4.44-137,109.21-215.69,19.08,4.9-18.93,23.19-33.36,24.5-53.63a166.14,166.14,0,0,1,37.56-94.11,23.36,23.36,0,0,0-16.54-11.85c1.08-1.43,29.58-5.63,37.56,4.92-3.52-12.64-13.55-27.52-34.46-28.06,0,0,24.21-7.12,44.84,5.57,38-30.65,94.55-33.45,142.75-31.3a166,166,0,0,1,97.74,31.67c20.74-13.2,45.43-5.94,45.43-5.94-21.23.68-30.82,15.36-34.47,28.06,7.72-10.59,37.23-6.24,37.57-4.92a23.37,23.37,0,0,0-17,12.66c23.9,28.56,36.85,67.08,37.84,106.08C495,297.33,509.25,311.36,512.24,328.73Z"/><path d="M173.84,166.84l-1.14-1.12.7-1.39A5.56,5.56,0,0,1,173.84,166.84Zm-1-1.18h0Z"/><path d="M257.9,257.77c-.7,51.17-53.82,51.16-54.52,0C204.09,206.61,257.2,206.62,257.9,257.77Z"/><path class="cls-4" d="M241,239.44c.13,9-14,9-13.82,0C227.06,230.47,241.14,230.47,241,239.44Z"/><path d="M234.1,246.85c-9.62.13-9.62-15,0-14.82C243.71,231.9,243.71,247,234.1,246.85Zm0-13.82c-8.32-.12-8.32,12.94,0,12.82C242.41,246,242.41,232.91,234.1,233Z"/><path class="cls-4" d="M239.28,269.58c-.07,15.82-24.12,15.82-24.19,0S239.21,253.76,239.28,269.58Z"/><path d="M227.19,282.17c-16.47-.08-16.47-25.1,0-25.18C243.65,257.07,243.65,282.09,227.19,282.17Zm0-24.18c-15.16.08-15.16,23.11,0,23.18C242.35,281.09,242.34,258.06,227.19,258Z"/><path d="M397.73,253.6c-.7,51.17-53.81,51.16-54.52,0C343.92,202.44,397,202.45,397.73,253.6Z"/><path class="cls-4" d="M380.84,235.27c.13,9-13.95,9-13.82,0C366.89,226.3,381,226.3,380.84,235.27Z"/><path d="M373.93,242.68c-9.61.13-9.61-15,0-14.82C383.54,227.73,383.54,242.81,373.93,242.68Zm0-13.82c-8.32-.12-8.32,12.94,0,12.82C382.25,241.8,382.25,228.74,373.93,228.86Z"/><path class="cls-4" d="M379.11,265.41c-.07,15.82-24.12,15.82-24.19,0S379,249.59,379.11,265.41Z"/><path d="M367,278c-16.47-.08-16.47-25.1,0-25.18C383.49,252.9,383.48,277.92,367,278Zm0-24.18c-15.16.08-15.16,23.11,0,23.18S382.18,253.89,367,253.82Z"/><path d="M321.53,358.27H283a13.88,13.88,0,0,1-13.89-13.88V325.22a4.32,4.32,0,0,1,4.32-4.31H331.1a4.31,4.31,0,0,1,4.32,4.31C335,337,339.31,357.87,321.53,358.27Z"/><path class="cls-5" d="M354.53,387.54c-26.28,39,18.53,116.89-53.7,123-71.92-6.09-28.07-83.87-53-123.26,17.5,4.24,38.88-2.83,47.69-15.3H308C316.56,384.16,337.24,391.3,354.53,387.54Z"/><path d="M302.25,449.51c-8.17,4.16-1.74-97.29-3.67-98.72a3.67,3.67,0,0,1,3.67-3.67c8.16-4.16,1.73,97.29,3.67,98.73A3.68,3.68,0,0,1,302.25,449.51Z"/><path class="cls-1" d="M115.1,645.54c54,87.34-42.67,149.13-99.23,63.41C-38.16,621.61,58.54,559.82,115.1,645.54Z"/><path class="cls-2" d="M130.24,689.3c-1.43-30.82-26.44-67.24-54.45-78.94,4.29-2,8.49-3.77,12.49-5.31C114.17,621.71,133.66,660.21,130.24,689.3Z"/><path class="cls-2" d="M94.81,672c26.12,42.09-15.23,68.51-42.45,27.13C26.24,657,67.59,630.62,94.81,672Z"/><path class="cls-2" d="M78.55,627.87c3.14,10.37-13.2,15.06-16,4.61C59.37,622.12,75.71,617.42,78.55,627.87Z"/><path class="cls-2" d="M46.32,632.4c3.14,10.36-13.21,15.06-16,4.61C27.13,626.65,43.48,622,46.32,632.4Z"/><path class="cls-2" d="M30,659c2.81,9.25-11.78,13.45-14.32,4.11C12.87,653.87,27.46,649.68,30,659Z"/><path class="cls-1" d="M486.8,645.54c-54,87.34,42.67,149.13,99.23,63.41C640.06,621.61,543.36,559.82,486.8,645.54Z"/><path class="cls-2" d="M524.82,611c-27.14,12-51.22,47.16-53.07,77.21-3.66-28.28,14.53-66,39.39-83.3C515,606.53,519.63,608.55,524.82,611Z"/><path class="cls-2" d="M512.94,675.74c-26.12,42.08,15.23,68.5,42.45,27.13C581.5,660.78,540.15,634.36,512.94,675.74Z"/><path class="cls-2" d="M533.85,627.87c-3.15,10.37,13.2,15.06,16,4.61C553,622.12,536.68,617.42,533.85,627.87Z"/><path class="cls-2" d="M564,635.28c-3.14,10.36,13.2,15.06,16,4.61C583.23,629.53,566.88,624.83,564,635.28Z"/><path class="cls-2" d="M575.43,661.06c-2.81,9.25,11.78,13.45,14.32,4.11C592.55,655.92,578,651.73,575.43,661.06Z"/><path class="cls-1" d="M434.55,525.85,417,691.84c74.91,60.81-26.89,88.27-72.75,56.93a30.82,30.82,0,0,1-12.88-23.11l-8.88-125.9Z"/><path class="cls-2" d="M452.78,743.55l-10.14-2c9.17-20.75-25.66-49.71-25.66-49.71l17.57-166-6.36,166S465.34,722.74,452.78,743.55Z"/><path class="cls-2" d="M426.77,757.51a2.75,2.75,0,0,1-2.75-2.85c.92-31.95-16.55-31.3-15.7-38.68,3.41-5.34,21.95,8.51,21.2,38.88A2.75,2.75,0,0,1,426.77,757.51Z"/><path class="cls-2" d="M394,764.19a2.76,2.76,0,0,1-2.75-3c2.14-24.93-3.39-35.21-3.45-35.31-1.77-3.06,3.06-5.83,4.78-2.73.27.46,6.46,11.59,4.16,38.51A2.76,2.76,0,0,1,394,764.19Z"/><polygon class="cls-1" points="288.32 598.98 288.32 599.76 287.13 598.98 288.32 598.98"/><path class="cls-1" d="M175.91,524l17.57,166c-74.91,60.81,26.89,88.27,72.75,56.93a30.82,30.82,0,0,0,12.88-23.12L288,597.92Z"/><path class="cls-2" d="M157.68,741.72c3.3-.66,6.67-1.34,10.14-2C158.65,719,193.48,690,193.48,690L175.91,524l6.36,166S145.11,720.9,157.68,741.72Z"/><path class="cls-2" d="M183.68,755.68a2.75,2.75,0,0,1-2.74-2.65c-.73-30.41,17.74-44.2,21.22-38.88.84,7.31-16.65,6.77-15.72,38.68A2.77,2.77,0,0,1,183.68,755.68Z"/><path class="cls-2" d="M216.42,762.35a2.76,2.76,0,0,1-2.74-2.51c-2.3-26.93,3.89-38.05,4.16-38.51,1.73-3.11,6.59-.33,4.77,2.74-.05.09-5.58,10.37-3.44,35.3A2.76,2.76,0,0,1,216.42,762.35Z"/><path d="M345,392.18c-53.77-1-50.82-55.27-39.06-36.68.22,34.46,68.48,41,73.75,6.2C390.08,344.45,396,390.57,345,392.18Z"/><path d="M258.54,392.18c-51.24-1.6-45.07-47.72-34.7-30.48,5.08,34.7,73.58,28.31,73.74-6.2C309.38,336.91,312.22,391.21,258.54,392.18Z"/></g></g></svg>