<svg xmlns="http://www.w3.org/2000/svg" viewBox="0 0 567.78 750.38"><defs><style>.cls-1{fill:#a54504;}.cls-2{fill:#ef833a;}.cls-3{fill:#df8e03;}.cls-4{fill:#fff;}.cls-5{fill:#f91c1c;}.cls-6{fill:#fdfffe;}</style></defs><g id="Layer_2" data-name="Layer 2"><g id="Object"><path class="cls-1" d="M56.59,547s-29.95-40.94-50.3-13.33C-21.32,592.48,61.92,640.54,56.59,547Z"/><path class="cls-2" d="M6.29,551.11c19.64-26.63,48.2,10.53,50.18,13.18a90.33,90.33,0,0,0,.12-17.3s-29.95-40.94-50.3-13.33C0,542.14-1.1,552.85.9,563.2A31.75,31.75,0,0,1,6.29,551.11Z"/><path class="cls-3" d="M525.34,735.22c-71.31,7-97.13-25.45-92.63-81.45a340.89,340.89,0,0,1,16.83-96.49C447.05,552,427.31,510,425.4,506l88.41-71.88c19.51,48.25,35.26,103.19,17,169.36-10.07,32.26-5.45,60-5.45,60C555,661.14,576,729.78,525.34,735.22Z"/><path class="cls-1" d="M436.68,697.75c-10.17-43.26,1-97.41,7.56-122.62l41.41-36.59S488.88,615.92,436.68,697.75Z"/><path class="cls-3" d="M494.9,487.33c-2.48,194.07-139,218.79-293.81,222.87C13.64,726.59-20.61,573,111.61,480.3c25.81-13.85,64.13-57.52,76.71-76.86,4.57,1.24,311.43-61.58,304.87,47.39A275.68,275.68,0,0,1,494.9,487.33Z"/><path d="M355.57,417.83a29.72,29.72,0,0,1-26.37-16c11.72-18.12,41.79-16.39,50.7,3.37A29.78,29.78,0,0,1,355.57,417.83Zm-25.19-15.94c9.26,18.24,36.93,20,48.44,3.09C369.55,386.74,341.92,385,330.38,401.89Z"/><path class="cls-1" d="M431.48,129.46S449.73,5.67,545,7.6c25.08,53.89,41.68,161.22-30,214.71Z"/><path class="cls-3" d="M555.26,37.51C550,19.62,545,7.6,545,7.6,449.73,5.67,431.48,129.46,431.48,129.46l25,27.75C460.86,127.7,480,44.43,555.26,37.51Z"/><path class="cls-1" d="M279.09,121.88S260.84-1.91,165.58,0c-25.08,53.89-41.68,161.22,30,214.71Z"/><path class="cls-3" d="M155.31,29.93C160.62,12,165.58,0,165.58,0c95.26-1.93,113.51,121.86,113.51,121.86l-25,27.75C249.71,120.11,230.61,36.85,155.31,29.93Z"/><path d="M487,166.87a6.54,6.54,0,0,1,.43-2.59l.7,1.4A15.68,15.68,0,0,1,487,166.87Z"/><path class="cls-4" d="M567.78,353.65c-2.59,203.54-482.34,186.57-425.15-33.32,79,90.16,139.48-14.63,215.68-19.08,69.95,1.44,142.07,103.34,206.3,27.48A99.27,99.27,0,0,1,567.78,353.65Z"/><path class="cls-1" d="M525.53,465.49C431.62,551.84,224.17,535.78,159.7,439c3.09-3.36,6-6.66,8.61-9.81,72.32,83.59,259.15,94.59,350.45,16.73C520.74,451.05,523.11,457.67,525.53,465.49Z"/><path class="cls-3" d="M564.61,328.73c-64.41,75.86-136.21-26-206.29-27.48-76,4.44-137,109.21-215.69,19.08,4.9-18.93,23.19-33.36,24.5-53.63a166.14,166.14,0,0,1,37.56-94.11,23.39,23.39,0,0,0-16.54-11.85c1.08-1.43,29.58-5.63,37.56,4.92-3.52-12.64-13.55-27.52-34.46-28.06,0,0,24.21-7.12,44.84,5.57,38-30.65,94.55-33.45,142.75-31.3a166,166,0,0,1,97.74,31.67c20.74-13.2,45.43-5.94,45.43-5.94-21.23.68-30.82,15.36-34.47,28.06,7.72-10.59,37.23-6.24,37.57-4.92a23.37,23.37,0,0,0-17,12.66C532,202,545,240.48,546,279.48,547.35,297.33,561.62,311.36,564.61,328.73Z"/><path d="M226.21,166.87l-1.14-1.15.7-1.4A5.73,5.73,0,0,1,226.21,166.87Zm-1-1.21h0Z"/><path d="M373.9,358.27H335.33a13.88,13.88,0,0,1-13.89-13.88V325.22a4.32,4.32,0,0,1,4.32-4.31h57.71a4.31,4.31,0,0,1,4.32,4.31C387.38,337,391.68,357.87,373.9,358.27Z"/><path d="M411.15,361.7c-3.34,44.23-57.31,36.81-60-2-1.65-10.44,5.66-10.61,5.07,0,2.63,29.74,46.95,35.65,49.93,2C406.09,357,411.21,356.94,411.15,361.7Z"/><path d="M356.45,355.5c.82,41.67-56,52.83-60.21,6.2,0-4.75,5-4.76,5,0,1.22,27.54,37,30.1,46.82,8.11a32,32,0,0,0,3.4-14.31C351.37,350.8,356.51,350.7,356.45,355.5Z"/><path d="M384.53,392.07A28.45,28.45,0,0,1,379.4,405c-8.84-18.71-38.43-20.62-49.61-3.15a28.88,28.88,0,0,1-3.18-9.72c11.84-.55,22.91-10,27.09-21.64C358.31,383.35,371.26,393.4,384.53,392.07Z"/><path class="cls-5" d="M379.4,405v0c-11.16,17.48-40.79,15.54-49.61-3.17C341,384.38,370.56,386.29,379.4,405Z"/><path d="M309.71,256.61c-.71,51.16-53.82,51.15-54.52,0C255.89,205.44,309,205.45,309.71,256.61Z"/><path class="cls-6" d="M292.81,238.27c.14,9-13.95,9-13.82,0C278.86,229.3,293,229.3,292.81,238.27Z"/><path d="M285.9,245.68c-9.61.14-9.61-15,0-14.82C295.52,230.73,295.52,245.82,285.9,245.68Zm0-13.82c-8.31-.12-8.31,12.94,0,12.82C294.22,244.8,294.22,231.74,285.9,231.86Z"/><path class="cls-6" d="M291.09,268.41c-.07,15.82-24.12,15.82-24.19,0S291,252.6,291.09,268.41Z"/><path d="M279,281c-16.47-.09-16.46-25.11,0-25.19C295.46,255.9,295.46,280.92,279,281Zm0-24.19c-15.16.08-15.16,23.11,0,23.19C294.15,279.93,294.15,256.89,279,256.82Z"/><path d="M449.54,252.44c-.71,51.16-53.82,51.15-54.52,0C395.73,201.27,448.84,201.28,449.54,252.44Z"/><path class="cls-6" d="M432.65,234.1c.13,9-14,9-13.83,0C418.69,225.13,432.78,225.13,432.65,234.1Z"/><path d="M425.74,241.51c-9.62.14-9.62-14.95,0-14.82C435.35,226.56,435.35,241.65,425.74,241.51Zm0-13.82c-8.32-.12-8.32,12.94,0,12.82C434.05,240.63,434.05,227.57,425.74,227.69Z"/><path class="cls-6" d="M430.92,264.24c-.07,15.82-24.12,15.82-24.19,0S430.85,248.43,430.92,264.24Z"/><path d="M418.82,276.84c-16.46-.09-16.46-25.11,0-25.19C435.29,251.73,435.29,276.75,418.82,276.84Zm0-24.19c-15.16.08-15.15,23.11,0,23.19C434,275.76,434,252.73,418.82,252.65Z"/><path class="cls-1" d="M519.75,735.87a2.77,2.77,0,0,1-2.22-4.38,40.6,40.6,0,0,0,7.62-18c2.59-21.3-2.16-23.78-6.12-28.85-.42-3.46,3.64-4.39,5.93-1.67C532.76,687.15,535.57,725.3,519.75,735.87Z"/><path class="cls-1" d="M485.45,735.26a2.77,2.77,0,0,1-2.38-4.13,39,39,0,0,0,5-13.9c2.73-23.48-3.76-21.54-7.14-26.67-.46-4.9,5.64-3.19,7.22-1,3.15,3,8,10.71,5.36,28.45C492.11,723.31,491,732.84,485.45,735.26Z"/><path class="cls-1" d="M433,630.84c-30.93,25.46-77.86,5.1-81-34.83-1.94-24.55-1.73-43.9-1.73-43.9L330.33,679.69C288.93,690.3,247,693.6,214,694.09c-9,.41-17.22-5.09-22.39-11.91,62.89-109-25.34-152.87-64.74-142.87,21.09,1.07,98.91,39.4,39.43,142.87a75.3,75.3,0,0,1,8.56,11.24c-15.76-.79-25.21-1.93-25.21-1.93l4.48,17.3a454.38,454.38,0,0,0,53.44,1.27h0c108.72-3.88,254.87-18.1,278.11-153.59C474.47,587.7,455.87,612,433,630.84Z"/><path class="cls-1" d="M251,676.77s5.46-24.44-5.45-52.26-11-95.86-11-95.86L344.6,539.08V530.7l-110.08-8.3s-4.71,77.34,6.21,105.16,3.94,40.22,3.94,40.22c-23.71-1.63-41.92,36.27-22.3,53.92C214.6,702.67,230.81,675.38,251,676.77Z"/><path class="cls-3" d="M147.37,545.18s78,42.6,18.63,137c57.69,65.6-41.71,83.57-82.68,55.26C19.79,673.8-4.55,503.54,147.37,545.18Z"/><path class="cls-1" d="M176.43,736.4a2.73,2.73,0,0,1-2.26-1.2A101.76,101.76,0,0,0,156.35,716c-1.65-1.12-2.1-3.1-.74-4.54a2.91,2.91,0,0,1,4.31.36C164.35,716.18,186.22,734.42,176.43,736.4Z"/><path class="cls-1" d="M153.27,749.75a2.74,2.74,0,0,1-2.3-1.24c-3-4.54-8.65-11.72-18.48-20.12-1.66-1.12-2.11-3.1-.74-4.54a2.91,2.91,0,0,1,4.31.36C144.15,731.72,162.46,748,153.27,749.75Z"/><path class="cls-3" d="M350.93,582.16s-15.86,58.55-9.46,115.53c3.4,30.34-39.78,47.23-90.47,42.15s-29.63-69,0-66.85c0,0,5.46-26.16-5.45-56s-11-102.64-11-102.64l116.39,11.81Z"/><path class="cls-1" d="M253.52,742.76c-7-4-9.24-14.49-10.85-21.52-2.91-18,7.48-28.64,18.89-29.71,3.21.57,2.66,5.56-.56,5.45-8.22.86-15.61,12.3-12.89,23.44a40.83,40.83,0,0,0,7.63,18A2.77,2.77,0,0,1,253.52,742.76Zm7-45.83Zm0,0Z"/><path class="cls-1" d="M287.81,742.15c-5.55-2.4-6.65-12-8-17.21-2.9-18,7.48-28.63,18.89-29.68,3.21.57,2.66,5.55-.56,5.45-8.21.85-15.61,12.28-12.88,23.41a39,39,0,0,0,4.95,13.9A2.76,2.76,0,0,1,287.81,742.15Zm9.79-41.5h0Zm0,0Z"/></g></g></svg>