<svg xmlns="http://www.w3.org/2000/svg" viewBox="0 0 772.51 587.05"><defs><style>.cls-1{fill:#df8e03;}.cls-2{fill:#a54504;}.cls-3{fill:#fff;}</style></defs><g id="Layer_2" data-name="Layer 2"><g id="Object"><path class="cls-1" d="M692.53,333.05C729.7,201.24,843,389.28,708.07,392.38Z"/><path class="cls-2" d="M755.5,300.05c14.64,29.83,13.93,71.94-51.41,77.15l4,15.18C791.27,388.49,778,328.7,755.5,300.05Z"/><path class="cls-1" d="M732.52,391C735.58,569.66,584.59,604.85,484,535c0,0-3.36,1.36-11.81,2.49-9.84,3.26-75.82.1-92.17-3.86-73.54-20.46-32.73-273.32-33.49-272.12C453,144.35,718.66,201.68,732.52,391Z"/><path class="cls-1" d="M159.64,570.35c-82.85-4.18-110.44-82-121-140.16,14.73,10.17,73.95,24.35,110.88,27.61,17.63,1.57,44.44,27.86,56.3,54.62h0C219.27,543.21,213.23,571.4,159.64,570.35Z"/><path class="cls-1" d="M449.6,504.09c-33.62,29.64-116.17,66.8-168.26,71.3-45.64,3.69-69.79-30.49-51.26-64.42h0c52.48-85,117.21-36.12,153.64-80.78C419.12,389.91,490.29,459.16,449.6,504.09Z"/><path class="cls-2" d="M592,372.42C522.88,362.63,443.61,416.62,488,511.8c.93,2-3.78,5.12-10.08,9.32-7.43,4.24-33.62,11.52-26.41-9.53,3.18-7.55,11.19-17.63,9.95-32.71-8.84,33.58-19.76,32.85-62.58,57.2-45.19,22.1-154.23,74.74-174.68,3.93,4,93.34,146.45,23.29,192.72-2.28a348.27,348.27,0,0,0,39.78,1l-.09.11c14.83-.76,21.27-2.46,27.85-3.5.65.45,1.9,1.29,3.73,2.44,6.49-2.89,11.36-5.14,11.36-5.14l-2.86-5.43c9.62-6.95,19.2-11.95,17.92-14.71C475.87,429.43,531.31,377.73,592,372.42Z"/><path class="cls-2" d="M226.18,550.28A2.54,2.54,0,0,1,224,546.4c12.05-21.35,42.71-27.09,32-17.16-.11,0-16.78,2.35-27.83,20A2.52,2.52,0,0,1,226.18,550.28Z"/><path class="cls-2" d="M241.66,569.19a2.55,2.55,0,0,1-2.27-3.64c8.87-18.13,24.05-22.48,24.69-22.65,3.13-.92,4.52,4,1.34,4.87-.17.05-13.67,4-21.49,20A2.52,2.52,0,0,1,241.66,569.19Z"/><path class="cls-2" d="M207.43,551.35a2.53,2.53,0,0,1-2.14-1.18c-13.79-21.81-28.67-16.38-30-22.67C176.6,516.51,220.18,547.52,207.43,551.35Z"/><path class="cls-2" d="M189.38,566.86a2.52,2.52,0,0,1-2.27-1.41c-7.83-16-21.36-20-21.49-20-3.15-.83-1.8-5.78,1.34-4.87.65.18,15.82,4.53,24.69,22.66A2.54,2.54,0,0,1,189.38,566.86Z"/><path class="cls-2" d="M266.41,167.86s5.91-114.81,93.21-121.34c27.63,47.1,52.16,143.82-8.72,199Z"/><path class="cls-1" d="M371.61,73c-6.41-15.9-12-26.45-12-26.45-87.3,6.53-93.21,121.34-93.21,121.34l25.25,23.2C293.13,163.69,303.35,85.86,371.61,73Z"/><path class="cls-2" d="M126.37,174.2S98.89,62.57,11.93,72.64C-6.31,124.11-12.14,223.72,58.06,266.4Z"/><path class="cls-1" d="M5.15,100.88c3.29-16.83,6.78-28.24,6.78-28.24,87-10.07,114.44,101.56,114.44,101.56L106,201.75C99.34,175.15,74.62,100.65,5.15,100.88Z"/><path d="M320.19,198.05l-.2-2,.53-2.1,1.37,2.16A24,24,0,0,1,320.19,198.05Z"/><path class="cls-3" d="M412.76,359.41C428.12,545.8-12.15,572.08,21,366c80.09,75.59,126.3-25.53,195.61-36.24,64.1-4.78,138.94,82.14,191.08,7.16A91.12,91.12,0,0,1,412.76,359.41Z"/><path class="cls-1" d="M408.23,338.26c-52.31,75-126.86-11.94-191.08-7.16C148,341.79,101.34,442.93,21.53,367.34c2.83-17.74,18.31-32.52,17.74-51.18a152.68,152.68,0,0,1,26.16-89.35,21.47,21.47,0,0,0-16.16-9.4c.86-1.4,26.56-7.72,34.78,1.23-4.33-11.26-14.8-24-34-22.67,0,0,21.53-8.61,41.5,1.2,32.09-31.35,83.57-38.84,127.84-41.07a152.46,152.46,0,0,1,92.15,20.45c17.82-13.88,41-9.39,41-9.39-19.36,2.48-26.85,16.73-29.08,28.67,6.14-10.36,33.51-9,33.93-7.77A21.49,21.49,0,0,0,343,201.11c24.35,24,39.55,58.15,43.85,93.73C389.7,311.05,404,322.64,408.23,338.26Z"/><path d="M82.4,221l-1.6-1.45.56-.63-.57.62-.45-.4c.11-.39.79-1.94,1-2.34A9.6,9.6,0,0,1,82.4,221Z"/><path d="M234.34,382.09l-33,3.15c-16.58,1.15-15.58-17.15-16.67-28.56a4.33,4.33,0,0,1,3.89-4.71l52.09-5a4.32,4.32,0,0,1,4.7,3.89C246.39,362.32,250.85,380.08,234.34,382.09Z"/><path d="M261.12,378.63c-.32-3.43-3.94-3.09-3.6.34.93,16.43-17.55,23.38-28.51,14.3-9.52-6.42-6-18.51-10.18-17.79-1,.1-1.7,1.36-1.56,2.82,2.06,10.1-5.52,21.31-15.72,22.81-8.66,1-18.22-3.63-19.7-14.93-.14-1.45-1.06-2.57-2-2.47s-1.68,1.36-1.54,2.81c3.29,26.8,36.71,25.27,42,2.39C229.84,410.4,263,405.54,261.12,378.63Z"/><path d="M292.3,317.63a27.07,27.07,0,0,1-25.89-19.24,3.37,3.37,0,1,1,6.45-1.95,20.18,20.18,0,0,0,9.82,12c15.13,8.84,34.67-7.13,29-23.72a3.37,3.37,0,0,1,6.46-1.94C323.71,299.48,309.81,318.11,292.3,317.63Z"/><path d="M128.73,333.2a27.09,27.09,0,0,1-26.9-29.78,3.37,3.37,0,1,1,6.7.69c-2.24,26.57,37.16,30.59,40.36,4.14a3.37,3.37,0,1,1,6.7.69A27.06,27.06,0,0,1,128.73,333.2Z"/><path class="cls-1" d="M511.32,510.7c3.21,7.07-61.19,28.37-25.18,59.41C518,597.61,675,575.47,691.88,510.7,747.57,323.69,440.24,314.07,511.32,510.7Z"/><path class="cls-2" d="M481.46,568.44a2.53,2.53,0,0,1-2.48-3c2.92-19.73,32-34.89,24.48-22.32-.14,0-16.4,7.58-19.56,23.46A2.51,2.51,0,0,1,481.46,568.44Z"/><path class="cls-2" d="M502.1,580.38a2.54,2.54,0,0,1-2.53-2.58,28.83,28.83,0,0,1,17-26.32c3-1.26,5,3.5,1.89,4.69a23.81,23.81,0,0,0-13.8,21.73A2.54,2.54,0,0,1,502.1,580.38Z"/><path class="cls-2" d="M205.88,512.42a72.84,72.84,0,0,1,5.31,16.75C146.73,531.48,50.64,507.42,43,452,75.42,489.94,136.4,513.72,205.88,512.42Z"/><path class="cls-2" d="M407.67,418c-20.19,56.88-95.57,103.89-183.41,110.46A54.71,54.71,0,0,1,230.08,511C324.92,498.42,401.55,455.54,413,374.21A93.52,93.52,0,0,1,407.67,418Z"/><path class="cls-2" d="M502.8,487.51s16.27,29.54,37.67,36.53a67.82,67.82,0,0,0-40.9-2.63l11.75-10.71A92.29,92.29,0,0,1,502.8,487.51Z"/><path d="M579.54,18.19c12.37-11.73,48.26-31.46,55-5.16,2.53,21.27-11.95,40.2-14,60.44a0,0,0,0,0,0-.06c0,.06-.09-.28-.26-.37a1.52,1.52,0,0,0-.58-.47c10.91-.71,21.34-8.36,30.91-13.7,5.27-3.43,10.78,4.68,5.7,8.34-12.42,10.41-52.26,33.22-47.34-.35C610.24,54.59,630.14,19,621.5,11.15,607.64,8.82,593.56,17.65,579.54,18.19Z"/><path d="M453.77,120.4c7.67-7.22,28.77-18.87,33.18-3.11,1.52,12.82-7.21,24.24-8.45,36.44a0,0,0,0,0,0,0s-.06-.17-.16-.23a.93.93,0,0,0-.35-.28c6.59-.43,12.86-5,18.64-8.26,3.18-2.07,6.5,2.82,3.43,5-7.45,6.37-31.5,19.86-28.54-.21.88-8.28,12.62-27.53,7.55-33.59C470.72,114.75,462.23,120.07,453.77,120.4Z"/><path d="M517.78,71.63c9.48-8.93,35.57-23.34,41-3.85,1.89,15.85-8.91,30-10.44,45.06a.09.09,0,0,0,0,0s-.07-.21-.19-.27a1.11,1.11,0,0,0-.44-.35c8.15-.54,15.91-6.23,23-10.22,3.93-2.55,8,3.49,4.24,6.22-9.21,7.88-39,24.55-35.29-.26,1-9.73,15.69-34.8,9.34-41.53C538.73,64.64,528.23,71.22,517.78,71.63Z"/></g></g></svg>